<svg width="64" height="64" viewBox="0 0 64 64" fill="none" xmlns="http://www.w3.org/2000/svg">
<path d="M39.296 17.1393H23.7031V45.162H39.296V17.1393Z" fill="#FF5F00"/>
<path d="M24.6934 31.1637C24.6913 28.4654 25.303 25.8019 26.4822 23.3749C27.6614 20.9478 29.3772 18.8208 31.4999 17.1548C28.8709 15.0888 25.7137 13.804 22.3891 13.4474C19.0645 13.0907 15.7067 13.6766 12.6993 15.1381C9.69198 16.5996 7.15646 18.8777 5.38257 21.712C3.60867 24.5463 2.66797 27.8225 2.66797 31.1662C2.66797 34.5098 3.60867 37.7861 5.38257 40.6204C7.15646 43.4547 9.69198 45.7328 12.6993 47.1942C15.7067 48.6557 19.0645 49.2416 22.3891 48.885C25.7137 48.5284 28.8709 47.2436 31.4999 45.1775C29.3766 43.511 27.6604 41.3832 26.4811 38.9553C25.3019 36.5273 24.6905 33.8629 24.6934 31.1637Z" fill="#EB001B"/>
<path d="M60.3345 31.1583C60.3344 34.5022 59.3935 37.7787 57.6193 40.6131C55.8451 43.4475 53.3092 45.7255 50.3015 47.1868C47.2937 48.6481 43.9355 49.2336 40.6108 48.8764C37.286 48.5193 34.1288 47.2339 31.5 45.1672C33.6218 43.4997 35.3371 41.3721 36.5166 38.945C37.6962 36.5178 38.3091 33.8544 38.3091 31.1559C38.3091 28.4573 37.6962 25.7939 36.5166 23.3667C35.3371 20.9396 33.6218 18.812 31.5 17.1445C34.1291 15.0775 37.2868 13.7921 40.612 13.4351C43.9372 13.0782 47.2958 13.6641 50.3037 15.126C53.3116 16.5879 55.8474 18.8666 57.6213 21.7018C59.3951 24.5369 60.3354 27.814 60.3345 31.1583Z" fill="#F79E1B"/>
<path d="M58.618 42.1922V41.618H58.8506V41.5042H58.2715V41.623H58.5041V42.1972L58.618 42.1922ZM59.7615 42.1922V41.4992H59.608L59.4001 41.9942L59.1922 41.4992H59.009V42.1922H59.113V41.6725L59.3061 42.1229H59.4397L59.6328 41.6725V42.1972L59.7615 42.1922Z" fill="#F79E1B"/>
</svg>
